<svg width="14" height="18" viewBox="0 0 14 18" fill="none" xmlns="http://www.w3.org/2000/svg">
<path fill-rule="evenodd" clip-rule="evenodd" d="M2 0H12C13.1 0 14 0.9 14 2V18L7 15L0 18L0.01 2C0.01 0.9 0.9 0 2 0ZM8.64754 11.6271L6.80309 10.4459L4.95865 11.6224C4.62087 11.8388 4.20754 11.5188 4.29643 11.1141L4.78531 8.89294L3.1542 7.39647C2.85643 7.12353 3.01643 6.60588 3.40754 6.57294L5.5542 6.38L6.3942 4.28588C6.54531 3.90471 7.06087 3.90471 7.21198 4.28588L8.05198 6.38471L10.1986 6.57765C10.5898 6.61059 10.7498 7.12824 10.452 7.40118L8.82087 8.89765L9.30976 11.1188C9.39865 11.5235 8.98531 11.8435 8.64754 11.6271Z" fill="#FFFF00"/>
</svg>
